<?xml version="1.0" encoding="UTF-8"?>
<svg id="Layer_2" data-name="Layer 2" xmlns="http://www.w3.org/2000/svg" viewBox="0 0 1458.59 858.94">
  <defs>
    <style>
      .cls-1 {
        fill: #fff;
      }
    </style>
  </defs>
  <g id="Layer_1-2" data-name="Layer 1">
    <g>
      <path class="cls-1" d="M633.84,373.33l-3.34-37.09h-229.36s-3.92,37.1-3.92,37.1h-114.44c4.45-12.76,7.81-24.69,11.13-37.43l21.54-80.49c7.99-30.52,15.18-60.44,21.48-91.02l75.59-.11,236.69-.03,53.42.2,15.87,65,27.65,101.17,13.04,42.72h-125.35ZM623.37,287.32c-3-17.63-6.3-34.85-10.48-52.32l-5.24-21.87-183.45-.02c-6.06,24.99-11.42,49.09-15.96,74.5l14.35-.27,200.79-.02Z"/>
      <path class="cls-1" d="M785.17,665.98c-34.66,4.81-68.54,4.74-102.74.7-43.38-5.12-80.64-23.72-91-68.45-5.75-24.82-6.23-50.47-1.01-75.43,5.17-24.73,20.66-44.39,43.71-54.54,41.14-18.12,106.48-17.67,151.56-12.1,15.86,1.96,30.5,5.66,44.69,12.21,36.65,16.92,48.26,50.22,48.08,89.16-.08,17.61-1.86,34.6-8.11,50.93-13.94,36.43-47.11,52.22-85.18,57.51ZM759.63,580.13c2.63-14.86,2.58-29.64.39-44.18-1.02-6.78-4.31-13.32-9.44-17.5-5.48-4.48-12.4-4.72-19.18-5.1-14.21-.79-25.83,7.7-28.19,22.17s-2.37,29.49.15,43.85c2.66,15.18,15.01,24.95,30.03,24.19,13.41-.68,23.77-9.44,26.24-23.43Z"/>
      <path class="cls-1" d="M1171.55,581.54c-.26,22.98-3.24,47.11-20.56,62.58-24.2,21.62-67.73,24.8-100.4,25.76-34.97,1.03-78.57-.38-110.52-12.89-32.36-12.67-40.7-40.36-40.74-73.44l-.04-35.06.07-78.92-.9-12.54,115.44-.02-1.42,45.59.05,78.67c0,15.97,19.22,20.26,36.34,16.66,7.25-1.52,13.17-7.75,13.15-15.96l-.13-80.96-.3-43.99h110.77c-1.16,24.65-2.72,48.7-2.1,73.49l1.27,51.05Z"/>
      <path class="cls-1" d="M578.39,665.79l-98.89-.07c-7.37,0-13.56-4.62-15.03-11.22l-3.47-15.55c-3.68-16.51-5.07-39-20.66-38.37l-25.35-1.03c.39,22.19,1.37,43.9,3.42,66.29h-112.3s1.43-83.34,1.43-83.34l-1.26-125.5,173.59.11c16.25.01,31.67,1.96,47.11,5.78,26.43,6.53,45.52,24.52,45.48,52.69-.03,25.68-5.24,44.21-29.73,54.43-10.82,4.52-21.71,5.76-34.1,8.79,12,2.6,22.81,3.78,33.61,7.75,13.01,5.12,22.75,14.9,25.63,28.68l10.54,50.57ZM462.45,544.12c1.87-9.86,1.9-18.83-.57-28.03-3.25-4.66-8.72-8.34-14.77-8.33l-33.27.07.38,47.68,33.48-.62c6.76-.12,12.47-4.44,14.75-10.78Z"/>
      <path class="cls-1" d="M175.67,591.62l-33.84.3-.38-44.74,10.13.19,128.98.05c2.19,31.79,3.46,64.69-16.07,90.23-16.2,19.25-42.35,26.83-67.32,29.78-33.58,3.97-66.85,4.3-100.3-.25-43.64-5.94-81.39-24.16-91.69-69.61-5.61-24.76-5.8-50.53-.28-75.28,5.43-24.35,20.16-43.23,42.53-53.8,13.83-6.54,27.96-10.52,43.46-12.51,35.63-4.57,71.07-4.49,106.83-.87,21.18,2.14,44.42,7.62,61.76,19.24,20.59,13.79,24.3,35.88,21.51,59.45-37.73-1.32-73.6-1.52-110.73-.04.21-11.75-.45-22.77-10.85-26.29-8.96-3.03-18.96-3.48-27.68.5-15.11,6.89-16.63,34.03-16.58,51.56.05,18.15.68,43.1,17.14,51.09,9.35,4.54,21.18,4.81,30.68.57,7.82-3.49,11.65-11.52,12.69-19.58Z"/>
      <path class="cls-1" d="M175.07,306.73l-33.99.16-.15-44.82,9.65.33,129.19.04,1.1,30.83c.49,13.66-1.77,26.69-6.26,39.55-11.42,32.67-42.84,45.16-75.86,49.3-34.08,4.28-67.97,4.75-102.01.18-42.81-5.74-80.95-23.1-91.83-67.53-8.46-34.56-7.76-84.75,16.35-112.36,17.9-20.49,47.89-29.39,74.95-32.22,36.04-3.76,71.73-3.74,107.66.87,26.26,3.37,60.06,13.1,71.54,37.34,6.01,12.68,6.52,26.94,4.59,40.4-37.71-1.3-73.63-1.47-110.69-.04.34-11.97-.21-22.51-10.89-26.33-7.17-2.56-15.07-2.93-22.4-1.26-20,4.56-21.82,32.84-21.8,53.37.02,17.95,1,42.64,16.48,50.72,10.37,5.41,22.99,5,33.39.25,6.21-4.31,9.17-10.05,10.96-18.78Z"/>
      <path class="cls-1" d="M1458.5,530.52c.81,35.91-3.89,69.81-40.15,83.17-32.66,12.03-75.21,10.43-111.34,8.65l2.96,43.49h-111.39c1.79-70.4,1.89-139.45-.03-208.83l169.27.03,24.18,1.84c44.79,5.11,65.47,26.07,66.5,71.66ZM1353.61,556.21c1.48-10.28,1.64-19.96-.05-29.71-4.56-20.61-27.4-15.84-48.13-15.97l.56,59.94c19.84.25,43.61,4.24,47.62-14.26Z"/>
      <path class="cls-1" d="M980.53,337.85l-40.88,3.21-24.19-.32-20.89-.66,3.19,43.38h-111.56s.82-30.45.82-30.45v-149.93s-.8-28.51-.8-28.51l175.6.35c16.61.03,32.42,2.98,47.38,8.68,32.68,12.46,37.81,44.6,36.96,76.97-.75,28.86-6.84,55.65-34.51,68.27-9.91,4.52-20.16,8.16-31.12,9.02ZM940.88,242.57c-2.77-13.06-17.12-15.41-30.44-14.99l-17.18.53.27,59.97c18.45.38,43.93,3.76,47.35-12.99,2.16-10.56,2.33-21.54,0-32.52Z"/>
      <path class="cls-1" d="M148.92,805.59c17.1,2.79,28.7,6.93,29.03,24.88.2,11.33-5.76,20.48-16.3,24.46-7.42,2.41-15.14,3.99-23.34,3.99H57.35c1.33-36.13,1.01-70.86.01-105.98l80.36.09c9.33.01,18.22,2.11,26.45,5.47,13.08,7.16,15.22,23.55,8.41,36.21-5.72,7.19-14.17,8.93-23.66,10.87ZM146.52,793.17c5.2-5.79,6.37-14.87-.08-19.8-3.56-2.72-9.37-3.22-14.02-3.82l-49.06-.02v28.22s46,.29,46,.29c6.13-.75,11.42-1.89,17.16-4.86ZM147.81,836.55c6.36-5.55,5.33-15.06-.25-20.19-6.05-2.67-12.47-4.08-19.19-4.03l-45.1.35.45,28.37,49.29.24c4.88-.77,10.78-1.24,14.8-4.75Z"/>
      <polygon class="cls-1" points="431.25 61.02 349.83 60.63 349.85 87.17 433.2 87.19 433.18 105.97 324.25 105.99 324.11 0 433.07 0 433.21 18.35 350.17 18.41 349.83 44.4 431.43 44.28 431.25 61.02"/>
      <path class="cls-1" d="M276.04,105.73l-26.76.33.52-42.52-73.07-.03.71,42.46h-26.78s.47-63.42.47-63.42L150.41,0h27.04s-.77,43.03-.77,43.03l73.1.02L249.3.02l26.82-.02c-1.09,35.12-1.08,68.89-.07,105.73Z"/>
      <polygon class="cls-1" points="337.67 858.8 304.36 858.93 274.95 821.96 270.36 815.08 247.39 844.49 236.87 858.83 205.71 858.73 250.85 805.1 207.66 753.09 240.27 752.95 273.75 795.56 282 784.13 305.8 752.97 335.97 753.03 291.9 805.82 337.67 858.8"/>
      <polygon class="cls-1" points="72.27 105.92 46.39 105.92 46.61 19.47 3.46 19.7 3.46 .02 114.9 0 114.92 19.76 72.2 19.46 72.27 105.92"/>
      <polygon class="cls-1" points="463.35 858.9 373.07 858.94 373.25 852.39 373.44 760.59 372.81 752.99 399.72 752.94 399.23 839.27 463.35 838.7 463.35 858.9"/>
    </g>
  </g>
</svg>