<?xml version="1.0" encoding="UTF-8"?>
<svg id="Layer_2" data-name="Layer 2" xmlns="http://www.w3.org/2000/svg" viewBox="0 0 2169.84 444.48">
  <g id="Layer_1-2" data-name="Layer 1">
    <g>
      <path d="M1023.24,137.13l-376.76-.02-7.94,30.74h-76.08s35.52-91.51,35.52-91.51L625.04,0h423.11s16.68,45.51,16.68,45.51c15.13,41.27,30.32,81.3,48.4,122.29l-82.56.08-7.43-30.77ZM1012.87,99.9l-13.88-42.03-10-28.68h-308.43s-9.57,29.19-9.57,29.19l-13.57,42.41h344.16s11.3-.88,11.3-.88Z"/>
      <path d="M1132.03,402.78h-316.92s-34.68-.21-34.68-.21l-7.63,30.92h-76.04s21.19-52.99,21.19-52.99l12.72-34.49,28.46-80.28h423.4s16.14,43.99,16.14,43.99c15.4,41.99,30.93,83.18,48.91,123.77l-82.65-.05-7.35-30.87-25.55.21ZM1147.11,365.29l-9.56-29.33-8.81-25.13-5.9-16.26-308.18.02-9.44,29.19-13.44,42.61,344.76-.02,10.57-1.06Z"/>
      <path d="M1895.89,436.43h-74s-32.26-40.74-32.26-40.74l-26.57-30.56-18.7-29.21,1.92,36.02.72,64.5h-64.03s.84-19.06.84-19.06l-.08-136.75c0-4.12-1.33-7.76-.42-11.93h81.37s10.76,15.17,10.76,15.17l32.45,39.53c11.37,13.85,21.14,27.4,29.04,43.49l-.62-17.97-.97-50.97-1.73-29.22,63.14-.03-.45,28.36-.41,139.39Z"/>
      <path d="M1894.38,147.6l.49,24.63-74.7.06c-12.94-19.02-27.21-35.84-42.37-52.73l-15.18-16.92-19.75-31.48.74,10.35.81,20.43,1.47,70.31-64.13.08.55-44.4-.07-93.98-.45-29.52,81.02-.03,2.64,4.48,31.66,39.29,25.96,32.95,12.67,21.53-.54-12.47-1.23-42.72-.86-29.96-1.18-13.06h63.12s-.51,48.51-.51,48.51l-.14,94.68Z"/>
      <path d="M1498.98,436.42l-63.17.03c-11.91,0-13.67-4.35-17.24-17.65l-5.75-21.4c-1.94-7.23-9.26-12.8-17.1-12.85l-42.9-.28,2.51,38.9.52,13.27h-72s.28-54.09.28-54.09l-.28-113.69,131.46.26c15.19.03,29.12,2.33,43.29,6.75,11.84,4.61,22.8,12.08,27.78,24.25,7.04,17.21,3.89,43.48-9.3,54.57-9.44,7.94-20.78,11-32.9,12.36-1.25.14-3.76,1.47-4.47,2.1,10.04.91,18.85,2.21,27.92,5.69,8.65,4.21,15.43,11.23,18.42,20.7l12.95,41.09ZM1419.39,336.71c3.01-8.07,2.46-17.63-3.62-23.26-4.44-4.12-11.99-5.74-18.09-5.75l-30.57-.05-14.3.58v40.34s48.06-.01,48.06-.01c7.67,0,15.74-4.4,18.52-11.85Z"/>
      <path d="M2084.91,79.14l41.68-.14,41.11-.12-.09,31.47-3.95,20.7c-8.33,27.93-33.72,37.67-61.19,42.12-13.61,2.2-26.73,2.3-40.62,2.4-33.39.25-72.23-4.79-95.05-29.99-9.32-10.29-15.6-22.23-17.31-35.92l-2.02-16.13.02-13.19c.02-13.57,3.34-26.47,9.95-38.42,15.95-28.79,51.02-38,82.89-39.99l45.08-.05c15.38-.02,30.19,3.26,44.56,8.23,26.58,9.19,41.42,27.58,37.47,55.68l-70.57-.03c2.28-11.17-4.3-19.28-14.54-21.97-12.82-3.36-26.29-3.26-39.31-.27-8.74,2.68-15.96,8.03-19.09,17.09-7.75,22.47-6.4,61.23,15.95,69.67,13.97,5.27,29.09,5.28,43.3,1.61,9.86-2.55,16.14-10.58,17.06-20.79l-46.39.26-.04-32.63,31.1.41Z"/>
      <path d="M2055.28,375.4l-.29-32.47,36.88.24,30.98-.03,45.9.07c1.33,9.36,1.32,18.43.59,27.5-2.12,26.34-8.98,46.61-34.42,57.86-14,6.19-28.95,9.37-44.58,10.3l-51.96-.07c-39.45-2.98-76.89-20.04-86.42-60.48-2.93-12.43-3.71-24.77-2.72-37.49,4.98-63.75,58.95-75.59,115.62-75.42,21.45.07,42.17,1.22,62.52,7.5,28.14,8.68,45.67,26.27,41.69,56.99l-70.85.06c1.88-8.97-2.1-17.3-10.58-20.48-14.58-5.47-31.29-5.39-46.24-.56-17.64,5.7-19.76,26.1-19.83,43.52-.08,19.55,5,39.07,24.64,43.83,21.67,5.25,53.26,3.81,55.43-21.05l-46.36.19Z"/>
      <path d="M1420.59,165.26l-7.2-25.48c-3.56-12.59-8.21-19.71-23.07-19.79l-38.41-.22.65,20.63.93,14.41,1.19,17.45-71.64.02c-.99-1.14-.36-3.32-.36-5.18V10.77s-.27-6.39-.27-6.39l137.84.56c15.63.06,30.52,3.47,44.15,9.87,12.26,5.76,21,16.65,23.18,29.78,2.98,17.95-.52,37.66-15.12,48.2-10.28,7.42-21.28,8.13-34.32,11.32l18.62,3.42c12.22,2.45,23.26,9.73,27.09,21.92l13.44,42.76-67.14.02c-4.03,0-8.49-3.18-9.56-6.97ZM1414.58,78.67c7.09-9.32,7.04-21.07-.24-29.79-4.71-3.04-9.86-4.32-15.62-5.45l-47.42.42.09,40.69,45.51.28c6.32-.56,12.22-2.42,17.68-6.16Z"/>
      <path d="M589.41,386.69c8.8-5.47,11.43-13.43,9.95-23.92l6.71.4h63.62c1.12,24.57-3.48,45.64-24.18,58.94-16.97,10.9-43.24,16.91-62.93,16.88l-40.27-.05c-17.48-.02-34.08-4.14-50.08-10.77-20.48-8.49-34.35-25.27-39.25-46.98-3.73-16.53-4.33-33.44-1.73-50.35,2.35-15.32,8.86-29.42,20.01-39.89,19.2-18.02,51.93-23.83,78.22-24.95,28.01-1.2,61.28.42,87.01,10.71,19.16,7.66,32.6,24.53,32.4,45.65l-.16,16.21-70.12.07c2.03-11.74-3.29-22.25-14.11-25.83-13.01-4.31-26.01-4.21-39.26-1.14-11.48,2.66-19.69,10.95-21.34,22.91-1.52,11.02-1.72,22.35.59,33.13,3.4,15.87,16.89,24,32.4,24.04l13.08.03c6.56.02,13.68-1.54,19.43-5.11Z"/>
      <path d="M262.75,443c-23.45,2.09-46.22,1.85-69.24-.06-15.35-1.27-30.01-3.74-43.72-10.39-18.69-9.06-24.27-26.7-21.15-47.3l16.39.82,46.95.34c-.75,8.51,3.75,15.2,11.9,17.12,7.77,1.83,15.77,2.12,23.98,2.11,12.82-.02,31.3-.48,32.65-11.38.73-5.88-3.77-11.41-9.36-13.19-7.92-2.52-16.13-4.38-24.56-5.22-32.73-3.27-91.44-5.96-96.88-42.46-3.46-23.16,2.96-41.47,24.56-51.71,14.1-6.68,29.11-9.57,44.89-11.04,28.52-2.66,66.45-1.69,93.73,5.69,18.33,4.96,31.64,14.99,33.63,34.36l-.17,16.62c-21.25-1.12-40.6-1-61.23-.94.02-4.31.19-9.79-2.99-12.19-9.84-7.44-33.22-6.79-47.87-5.43-4.15.38-8.71,1.82-12.11,3.84-4.34,2.58-5.49,8.78-1.72,12.46,4.76,4.66,11.75,7.45,18.52,8.37l32.54,4.42c26.77,3.63,59.33,5.91,73.29,29.6,4.47,7.58,5.09,16.3,5.22,24.91.2,13.31-4.54,25.04-14.95,33.35-9.72,7.76-21.17,12.58-33.57,14.46l-18.72,2.83Z"/>
      <path d="M432.11,134.45c-.8,1.21-.63,3.33-.57,5.14l.73,24.61.24,8.06-72,.02.09-10.95.91-30.45-.12-90.95-1.21-35.56,134.24.51c13.73.05,26.79,3.03,38.97,7.95,14.71,5.95,25.16,17.92,28.62,33.43,3.93,17.6,3.79,36.36-3.15,53.22-6.35,15.42-20.64,25.35-36.19,29.73-10.07,2.83-19.71,3.7-30.12,5.09l-60.44.15ZM495.23,60.17c-1.38-6.48-5.6-10.82-11.78-12.48l-9.59-2.19-43.15-.13v49.09s21.21-.08,21.21-.08l15.94-.89c5.52.24,10.53-.58,15.68-2.24,12.88-4.15,14.47-18.02,11.69-31.09Z"/>
      <rect x="1548.85" y="268.67" width="72.98" height="167.78"/>
      <rect x="1547.74" y="4.41" width="72.27" height="167.95"/>
      <rect x="1147.76" y="4.4" width="72.99" height="167.96"/>
      <path d="M.81,440.86c-1.19-2.86-.95-6.29-.09-9.79l.02-146.46c-.68-4.22-.88-7.72-.39-11.63l72.54-.03.08,167.84-72.15.06Z"/>
    </g>
  </g>
</svg>